<?xml version="1.0" standalone="no"?>
<!DOCTYPE svg PUBLIC "-//W3C//DTD SVG 20010904//EN"
 "http://www.w3.org/TR/2001/REC-SVG-20010904/DTD/svg10.dtd">
<svg version="1.0" xmlns="http://www.w3.org/2000/svg"
 width="512.000000pt" height="512.000000pt" viewBox="0 0 512.000000 512.000000"
 preserveAspectRatio="xMidYMid meet">

<g transform="translate(0.000000,512.000000) scale(0.100000,-0.100000)"
fill="#000000" stroke="none">
<path d="M395 5110 c-107 -22 -208 -80 -273 -158 -45 -54 -67 -94 -93 -170
-18 -53 -19 -112 -19 -1663 l0 -1608 26 -20 c34 -27 64 -27 92 -1 12 12 23 22
24 23 2 1 5 724 8 1607 l5 1605 26 55 c29 62 86 123 139 150 74 38 136 41 665
38 l510 -3 55 -26 c66 -31 131 -94 162 -157 l23 -47 0 -2175 0 -2175 -23 -47
c-31 -63 -96 -126 -162 -157 l-55 -26 -510 -3 c-529 -3 -591 0 -665 38 -53 27
-110 88 -139 150 l-26 55 -5 460 c-3 253 -9 467 -13 476 -8 17 -49 39 -71 39
-7 0 -25 -9 -40 -21 l-26 -20 0 -468 c0 -504 0 -504 55 -612 48 -93 155 -183
265 -223 52 -19 84 -21 585 -24 351 -2 552 1 595 8 173 29 314 154 377 332 17
51 18 139 18 2218 0 2079 -1 2167 -18 2218 -43 122 -132 230 -234 285 -100 54
-140 57 -703 56 -283 -1 -533 -5 -555 -9z"/>
<path d="M2016 4829 c-30 -23 -35 -72 -12 -105 14 -19 43 -19 1368 -24 l1353
-5 67 -33 c76 -37 120 -85 149 -162 18 -49 19 -110 19 -1940 0 -1830 -1 -1891
-19 -1940 -29 -77 -73 -125 -149 -162 l-67 -33 -1353 -5 c-1325 -5 -1354 -5
-1368 -24 -23 -33 -18 -82 12 -105 l27 -21 1316 0 c807 0 1339 4 1376 10 91
15 194 70 254 136 57 62 74 91 102 172 18 53 19 118 19 1972 0 1854 -1 1919
-19 1972 -28 81 -45 110 -102 172 -60 66 -163 121 -254 136 -37 6 -569 10
-1376 10 l-1316 0 -27 -21z"/>
<path d="M2292 4331 c-65 -23 -117 -70 -148 -136 -23 -49 -24 -55 -24 -355 0
-299 1 -306 24 -355 27 -58 65 -99 121 -129 l40 -21 1110 0 c1063 0 1111 1
1145 19 49 26 98 74 123 121 21 38 22 54 25 346 3 289 2 308 -18 361 -27 72
-89 131 -161 152 -33 10 -91 16 -156 16 -97 0 -106 -2 -128 -25 -32 -31 -33
-75 -2 -102 19 -18 38 -22 132 -25 186 -6 185 -5 185 -357 0 -297 -4 -321 -64
-346 -52 -22 -2109 -22 -2161 -1 -62 26 -65 43 -65 343 0 305 5 328 70 350 26
9 252 12 877 12 463 1 849 4 858 7 10 4 23 21 30 37 16 39 3 80 -31 96 -18 8
-261 11 -877 11 -800 -1 -855 -2 -905 -19z"/>
<path d="M2275 3075 c-55 -19 -128 -100 -145 -159 -29 -105 13 -214 104 -271
l49 -30 226 -3 c257 -4 282 1 350 69 44 44 71 111 71 173 0 90 -82 199 -169
224 -57 18 -434 15 -486 -3z m455 -150 c35 -18 55 -71 41 -108 -20 -53 -39
-57 -247 -57 -176 0 -193 2 -217 20 -48 38 -42 116 12 145 38 21 370 21 411 0z"/>
<path d="M3169 3076 c-188 -67 -214 -326 -45 -431 l49 -30 226 -3 c257 -4 282
1 350 69 44 44 71 111 71 173 0 90 -82 199 -169 224 -55 17 -435 15 -482 -2z
m451 -151 c35 -18 55 -71 41 -108 -20 -53 -39 -57 -247 -57 -177 0 -193 2
-217 20 -49 39 -42 119 13 147 38 19 372 18 410 -2z"/>
<path d="M4059 3076 c-188 -67 -214 -326 -45 -431 l49 -30 226 -3 c187 -3 232
0 267 13 51 19 104 69 130 121 27 55 25 155 -4 210 -27 53 -90 107 -141 122
-55 17 -435 15 -482 -2z m450 -151 c56 -29 58 -125 3 -154 -13 -7 -94 -11
-212 -11 l-192 0 -29 29 c-43 44 -33 111 21 138 38 19 372 18 409 -2z"/>
<path d="M2282 2451 c-218 -75 -211 -390 10 -456 72 -21 393 -21 464 0 107 32
168 115 168 230 0 115 -61 198 -168 230 -78 23 -403 20 -474 -4z m465 -163
c37 -37 37 -89 0 -126 l-27 -27 -189 0 c-206 0 -230 5 -251 56 -21 50 6 103
63 121 12 4 102 6 199 5 l178 -2 27 -27z"/>
<path d="M3172 2451 c-218 -75 -211 -390 10 -456 72 -21 393 -21 464 0 107 32
168 115 168 230 0 115 -61 198 -168 230 -78 23 -403 20 -474 -4z m465 -163
c37 -37 37 -89 0 -126 l-27 -27 -189 0 c-206 0 -230 5 -251 56 -21 50 6 103
63 121 12 4 102 6 199 5 l178 -2 27 -27z"/>
<path d="M4085 2461 c-74 -18 -131 -67 -164 -141 -58 -128 14 -284 151 -325
74 -22 393 -21 467 1 94 27 171 131 171 229 0 56 -31 127 -76 171 -64 64 -109
74 -333 73 -102 -1 -199 -4 -216 -8z m442 -173 c37 -37 37 -89 0 -126 -27 -27
-28 -27 -196 -30 -196 -4 -243 4 -266 48 -19 36 -19 54 0 90 22 43 58 49 257
47 l178 -2 27 -27z"/>
<path d="M2326 1840 c-146 -26 -235 -166 -195 -308 17 -61 96 -142 155 -160
55 -16 422 -16 475 0 87 26 169 135 169 224 0 95 -52 179 -138 221 -54 26 -62
27 -236 30 -100 1 -203 -2 -230 -7z m412 -166 c52 -36 48 -120 -8 -149 -41
-21 -368 -22 -409 0 -56 29 -63 106 -14 145 24 18 41 20 217 20 159 0 195 -3
214 -16z"/>
<path d="M3216 1840 c-146 -26 -235 -166 -196 -310 16 -59 98 -143 155 -159
54 -15 426 -14 476 1 87 25 169 134 169 224 0 96 -59 187 -149 227 -40 18 -69
21 -226 23 -99 2 -202 -1 -229 -6z m412 -166 c34 -23 45 -60 31 -101 -18 -56
-45 -63 -243 -63 -96 0 -186 4 -200 10 -58 22 -69 110 -19 150 24 18 40 20
217 20 159 0 195 -3 214 -16z"/>
<path d="M4106 1840 c-69 -12 -135 -56 -171 -115 -27 -43 -30 -57 -30 -124 1
-84 14 -118 66 -170 63 -64 73 -66 313 -69 244 -4 276 2 343 61 53 47 77 101
78 177 0 103 -50 181 -145 223 -39 18 -69 21 -225 23 -99 2 -202 -1 -229 -6z
m416 -170 c31 -24 40 -65 23 -106 -21 -50 -50 -56 -258 -52 -173 3 -188 5
-207 24 -11 11 -23 37 -27 57 -5 31 -1 40 25 67 l30 30 195 0 c178 0 196 -2
219 -20z"/>
<path d="M2280 1207 c-53 -17 -133 -102 -149 -159 -41 -147 47 -280 204 -309
35 -6 131 -10 230 -7 162 3 173 5 227 31 120 59 170 194 114 312 -28 60 -66
97 -126 124 -41 19 -64 20 -255 20 -123 -1 -225 -6 -245 -12z m450 -152 c35
-18 55 -71 41 -108 -20 -53 -39 -57 -247 -57 -176 0 -193 2 -217 20 -48 38
-42 116 12 145 38 21 370 21 411 0z"/>
<path d="M3172 1207 c-56 -18 -128 -91 -147 -148 -36 -108 3 -224 95 -281 65
-40 140 -51 335 -46 145 3 177 7 216 25 126 57 182 198 125 318 -28 60 -66 97
-126 124 -41 19 -64 20 -255 20 -119 -1 -224 -6 -243 -12z m448 -152 c35 -18
55 -71 41 -108 -20 -53 -39 -57 -249 -57 l-194 0 -29 29 c-43 44 -33 106 22
137 36 20 370 19 409 -1z"/>
<path d="M4064 1207 c-207 -78 -222 -353 -25 -446 55 -25 60 -26 266 -26 192
0 214 2 255 21 95 44 145 121 145 224 -1 102 -50 176 -145 219 -41 19 -64 21
-255 20 -135 0 -221 -5 -241 -12z m445 -152 c54 -27 61 -108 13 -145 -23 -18
-41 -20 -222 -20 l-198 0 -26 31 c-39 47 -30 105 21 133 40 22 371 23 412 1z"/>
</g>
</svg>
