<?xml version="1.0" standalone="no"?>
<!DOCTYPE svg PUBLIC "-//W3C//DTD SVG 20010904//EN"
 "http://www.w3.org/TR/2001/REC-SVG-20010904/DTD/svg10.dtd">
<svg version="1.0" xmlns="http://www.w3.org/2000/svg"
 width="512.000000pt" height="512.000000pt" viewBox="0 0 512.000000 512.000000"
 preserveAspectRatio="xMidYMid meet">

<g transform="translate(0.000000,512.000000) scale(0.100000,-0.100000)"
fill="#000000" stroke="none">
<path d="M2866 5109 c-486 -51 -950 -280 -1279 -629 -67 -71 -163 -191 -208
-259 l-15 -24 -46 74 c-26 41 -59 86 -75 101 -47 45 -119 72 -192 71 -63 -1
-71 -4 -485 -211 -232 -115 -439 -223 -461 -239 -22 -16 -53 -54 -70 -84 -27
-49 -30 -62 -29 -139 3 -241 137 -756 286 -1099 292 -673 772 -1287 1391
-1781 402 -320 821 -553 1280 -709 278 -95 637 -172 807 -175 77 -1 90 2 139
29 30 17 68 48 84 70 16 22 124 229 239 460 208 418 209 420 210 486 0 75 -25
146 -70 192 -15 16 -59 49 -99 73 l-72 45 97 74 c783 591 1041 1643 619 2520
-278 577 -812 995 -1429 1119 -217 44 -426 56 -622 35z m124 -589 l0 -420 -34
0 c-187 0 -696 75 -696 102 0 23 102 219 157 303 145 220 291 347 472 411 112
40 101 84 101 -396z m293 385 c90 -36 163 -84 247 -163 129 -120 244 -287 326
-472 l33 -75 -27 -8 c-103 -28 -405 -71 -594 -83 l-108 -6 0 422 0 422 33 -7
c17 -4 58 -17 90 -30z m-848 -97 c-60 -70 -169 -219 -208 -285 -42 -69 -127
-244 -127 -261 0 -6 -4 -13 -9 -17 -12 -7 -167 49 -279 100 l-83 38 28 29 c81
85 289 237 433 316 60 32 262 121 278 122 2 0 -13 -19 -33 -42z m1317 13 c155
-60 309 -146 451 -254 101 -76 210 -178 200 -187 -26 -22 -341 -147 -349 -138
-1 2 -16 37 -33 79 -62 149 -170 321 -289 457 -34 39 -61 72 -60 72 2 0 38
-13 80 -29z m-2633 -568 c37 -32 531 -833 531 -863 0 -39 -39 -86 -205 -250
-168 -166 -195 -207 -195 -305 0 -178 149 -554 307 -774 76 -106 236 -280 351
-383 243 -217 641 -407 894 -425 126 -9 144 1 343 197 187 183 207 200 246
200 29 0 831 -494 861 -531 37 -44 27 -72 -191 -508 -242 -484 -215 -451 -358
-431 -844 115 -1643 532 -2317 1206 -561 560 -938 1195 -1120 1886 -35 132
-78 349 -91 461 -13 109 -34 92 434 327 436 219 465 230 510 193z m602 -52
c57 -27 149 -66 204 -86 55 -20 101 -38 102 -39 1 -1 -11 -47 -27 -103 -59
-207 -102 -465 -116 -695 l-7 -118 -85 0 -84 0 31 35 c57 66 76 112 76 195 0
90 9 70 -192 393 -145 232 -155 250 -144 275 12 25 129 192 135 192 2 0 50
-22 107 -49z m2868 -30 c192 -259 319 -597 349 -923 l8 -88 -341 0 -342 0 -6
138 c-11 217 -54 472 -115 683 l-28 96 117 43 c64 23 154 62 200 86 46 23 87
43 92 43 4 1 34 -35 66 -78z m-2224 -175 c156 -32 327 -53 493 -62 l132 -7 0
-383 0 -384 -470 0 -470 0 0 43 c0 177 52 503 117 735 25 91 27 94 52 88 14
-3 80 -16 146 -30z m1599 -13 c58 -178 112 -484 123 -695 l6 -128 -466 0 -467
0 0 383 0 384 123 6 c165 9 355 34 512 67 72 15 135 28 142 29 6 0 18 -20 27
-46z m-2080 -1115 c14 -236 55 -482 116 -693 17 -59 29 -109 28 -110 -9 -5
-185 -65 -194 -65 -5 0 -35 30 -65 68 -154 187 -267 407 -324 631 -38 147 -36
161 32 232 l56 59 172 0 172 0 7 -122z m1101 -268 l0 -385 -129 -7 c-169 -9
-352 -32 -523 -67 -76 -16 -139 -28 -140 -27 -10 8 -87 337 -102 436 -21 131
-41 325 -41 398 l0 42 468 -2 467 -3 0 -385z m1101 258 c-6 -140 -24 -279 -51
-413 -19 -97 -74 -307 -83 -322 -5 -8 -31 -6 -87 8 -129 31 -409 68 -562 76
l-143 6 0 389 0 388 467 0 466 0 -7 -132z m851 45 c-21 -317 -155 -668 -359
-945 l-49 -67 -98 48 c-54 27 -146 66 -205 87 -59 21 -106 44 -106 51 0 7 11
52 25 100 59 201 115 556 115 724 0 42 3 79 7 82 3 4 157 7 341 7 l335 0 -6
-87z m-1947 -1116 l0 -254 -59 -56 c-51 -49 -65 -57 -98 -57 -47 0 -143 22
-243 55 l-75 25 -62 88 c-85 118 -203 350 -184 361 19 12 204 47 341 65 150
20 177 22 288 24 l92 2 0 -253z m545 228 c126 -17 322 -53 342 -64 13 -7 -40
-128 -104 -238 l-36 -61 -81 51 c-167 105 -183 112 -266 112 -83 0 -129 -19
-195 -76 l-35 -31 0 168 0 167 128 -6 c70 -4 181 -13 247 -22z m-1419 -172
c22 -48 53 -116 72 -157 3 -5 -15 5 -39 22 -64 44 -179 141 -179 150 0 8 82
39 108 41 7 1 24 -25 38 -56z m2046 26 c45 -16 121 -48 168 -70 l85 -41 -50
-45 c-121 -111 -298 -243 -326 -243 -6 0 -45 21 -85 46 l-74 46 26 42 c14 22
54 98 87 168 34 70 67 128 74 128 6 0 49 -14 95 -31z"/>
</g>
</svg>
